<?xml version="1.0" standalone="no"?>
<!DOCTYPE svg PUBLIC "-//W3C//DTD SVG 20010904//EN"
 "http://www.w3.org/TR/2001/REC-SVG-20010904/DTD/svg10.dtd">
<svg version="1.0" xmlns="http://www.w3.org/2000/svg"
 width="1310.000000pt" height="1260.000000pt" viewBox="0 0 1310.000000 1260.000000"
 preserveAspectRatio="xMidYMid meet">

<g transform="translate(0.000000,1260.000000) scale(0.100000,-0.100000)"
fill="#000000" stroke="none">
<path d="M5760 8702 c-294 -98 -352 -120 -335 -129 11 -6 60 -27 110 -48 l90
-37 60 19 c47 14 93 18 215 18 169 0 249 -16 353 -73 133 -72 170 -194 85
-281 -73 -75 -193 -111 -368 -111 -322 0 -551 153 -474 316 9 19 15 36 13 38
-2 1 -63 28 -136 58 l-132 56 -178 -57 c-98 -32 -287 -93 -421 -137 -133 -43
-239 -81 -235 -85 5 -4 85 -40 178 -79 94 -40 313 -133 487 -207 308 -131 319
-135 370 -129 29 4 211 20 403 36 193 16 452 39 577 50 125 11 235 17 245 13
10 -3 142 -59 293 -123 151 -65 362 -154 468 -199 l193 -82 47 15 c204 67 498
26 637 -89 115 -93 94 -225 -46 -295 -222 -113 -638 -56 -751 103 -29 41 -37
127 -13 163 9 14 15 27 13 28 -2 1 -115 50 -253 108 -137 59 -330 141 -427
182 -124 53 -190 76 -218 76 -35 0 -414 -32 -1002 -85 -91 -8 -186 -15 -210
-15 -45 0 -35 -4 -820 331 l-347 148 -140 -47 c-78 -26 -141 -50 -141 -53 0
-3 62 -32 138 -63 75 -32 151 -64 167 -72 17 -7 109 -46 205 -87 96 -41 303
-129 460 -195 157 -67 426 -182 599 -255 l314 -134 61 20 c86 29 308 30 418 3
102 -25 204 -81 246 -135 27 -36 32 -51 32 -95 0 -95 -73 -162 -220 -202 -95
-26 -298 -24 -403 4 -149 40 -243 108 -268 192 -12 38 -7 69 17 126 5 12 0 15
-411 189 -165 70 -334 142 -375 160 -41 18 -113 48 -160 68 -76 32 -205 87
-803 341 -99 42 -184 76 -190 76 -16 0 -290 -91 -299 -99 -4 -4 20 -19 55 -33
490 -209 1000 -425 1067 -453 112 -46 109 -37 76 -227 -51 -304 -67 -421 -59
-428 4 -4 89 -42 188 -83 99 -41 250 -105 335 -142 l155 -66 80 21 c98 24 275
27 380 5 39 -8 108 -34 155 -57 71 -36 91 -51 118 -93 30 -44 33 -56 29 -98
-5 -58 -28 -91 -91 -135 -82 -55 -140 -67 -321 -67 -149 0 -166 2 -246 28
-194 64 -281 175 -226 287 l16 31 -42 19 c-23 10 -172 73 -332 141 -159 68
-300 134 -313 146 -14 14 -21 30 -18 41 3 9 17 87 31 172 14 85 35 206 46 269
11 63 16 117 12 121 -4 4 -78 37 -163 73 -85 36 -335 142 -555 235 -220 94
-435 185 -477 202 l-77 32 -217 -73 -218 -74 -33 -195 c-19 -107 -36 -220 -39
-251 l-6 -55 183 -78 c101 -43 218 -94 260 -112 42 -19 79 -34 82 -34 4 0 31
-11 61 -25 96 -44 97 -44 176 -24 110 27 196 33 295 20 180 -24 313 -86 366
-170 107 -167 -106 -315 -429 -298 -232 12 -410 100 -442 218 -10 37 -1 89 21
115 7 8 10 16 8 18 -2 2 -130 56 -284 121 -369 155 -401 170 -413 191 -9 17
25 254 66 467 5 26 6 47 2 47 -6 0 -243 -80 -1173 -395 -121 -41 -238 -85
-260 -99 -86 -50 -127 -117 -127 -205 0 -84 25 -122 104 -163 22 -11 420 -147
885 -303 2380 -795 3275 -1094 3561 -1192 l315 -107 120 0 c117 0 124 1 250
46 277 97 775 264 2245 753 2195 731 2282 760 2376 804 94 44 130 69 156 109
34 51 17 149 -34 207 -46 53 -138 91 -548 228 -206 69 -872 293 -1480 497
-608 204 -1489 500 -1958 657 l-853 285 -102 5 -102 4 -355 -119z"/>
<path d="M5747 8414 c-97 -23 -157 -61 -157 -99 0 -81 235 -166 424 -151 108
8 188 32 233 71 34 29 36 34 26 58 -46 100 -335 167 -526 121z"/>
<path d="M7751 7459 c-61 -10 -147 -54 -162 -81 -26 -48 41 -105 169 -144 172
-53 419 -29 494 47 46 45 19 85 -87 135 -108 49 -271 66 -414 43z"/>
<path d="M5938 7216 c-26 -8 -68 -26 -93 -40 -37 -22 -45 -32 -45 -56 0 -41
70 -91 170 -122 62 -19 97 -23 205 -23 148 0 232 19 287 65 29 25 32 30 23 56
-13 36 -73 77 -155 105 -82 28 -316 37 -392 15z"/>
<path d="M3612 6869 c-24 -4 -68 -19 -98 -33 -94 -43 -94 -95 0 -150 151 -88
451 -93 579 -10 154 100 -210 247 -481 193z"/>
<path d="M5455 6439 c-102 -17 -195 -67 -195 -105 0 -22 43 -65 89 -89 83 -42
166 -58 296 -59 147 -1 247 25 289 74 33 39 24 65 -36 106 -98 66 -292 99
-443 73z"/>
<path d="M10600 6372 l-165 -58 -3 -454 -2 -454 -34 -36 c-141 -147 -102 -382
78 -470 59 -29 72 -32 143 -29 125 6 203 56 254 164 52 107 31 250 -46 325
l-35 34 0 518 c0 408 -3 518 -12 517 -7 0 -87 -26 -178 -57z"/>
<path d="M8015 5509 c-753 -252 -1430 -479 -1504 -504 -81 -28 -174 -52 -239
-62 -196 -29 -113 -52 -1771 503 -812 272 -1477 494 -1478 494 -2 0 -3 -397
-3 -882 0 -947 0 -951 51 -1051 103 -202 302 -369 634 -532 495 -244 1188
-400 1991 -451 284 -18 878 -15 1134 5 1428 114 2488 583 2560 1133 11 86 14
1795 3 1801 -5 2 -624 -202 -1378 -454z"/>
<path d="M10246 4833 c-8 -37 -73 -391 -96 -523 -11 -58 -38 -204 -60 -325
-23 -121 -50 -269 -61 -330 -11 -60 -22 -118 -25 -127 -3 -11 8 -25 38 -45
266 -180 600 -223 897 -114 76 28 193 90 240 128 l23 19 -25 139 c-14 77 -64
347 -111 600 -46 253 -90 490 -96 528 -7 37 -14 67 -17 67 -3 0 -27 -18 -54
-41 -172 -144 -436 -139 -598 11 -24 22 -45 40 -46 40 -2 0 -6 -12 -9 -27z"/>
</g>
</svg>
